# AST/ASF file generated using VICON BodyLanguage
# -----------------------------------------------
:version 1.10
:name VICON
:units
  mass 1.0
  length 0.45
  angle deg
:documentation
   .ast/.asf automatically generated from VICON data using
   VICON BodyBuilder and BodyLanguage model FoxedUp or BRILLIANT.MOD
:root
   order TX TY TZ RX RY RZ
   axis XYZ
   position 0 0 0  
   orientation 0 0 0 
:bonedata
  begin
     id 1 
     name lhipjoint
     direction 0.521452 -0.77106 0.36545 
     length 2.0933 
     axis 0 0 0  XYZ
  end
  begin
     id 2 
     name lfemur
     direction 0.34202 -0.939693 0  
     length 6.83441  
     axis 0 0 20  XYZ
    dof rx ry rz
    limits (-160.0 20.0)
           (-70.0 70.0)
           (-60.0 70.0)
  end
  begin
     id 3 
     name ltibia
     direction 0.34202 -0.939693 0   
     length 7.28749   
     axis 0 0 20   XYZ
    dof rx
    limits (-10.0 170.0)
  end
  begin
     id 4 
     name lfoot
     direction 0.100608 -0.276418 0.955757   
     length 1.52195   
     axis -90 7.62852e-016 20   XYZ
    dof rx rz
    limits (-45.0 90.0)
           (-70.0 20.0)
  end
  begin
     id 5 
     name ltoes
     direction 1.53558e-011 -4.21907e-011 1   
     length 0.770459   
     axis -90 7.62852e-016 20   XYZ
    dof rx
    limits (-90.0 20.0)
  end
  begin
     id 6 
     name rhipjoint
     direction -0.488071 -0.788702 0.373812   
     length 2.04648  
     axis 0 0 0  XYZ 
  end
  begin
     id 7 
     name rfemur
     direction -0.34202 -0.939693 0   
     length 6.92583   
     axis 0 0 -20   XYZ
    dof rx ry rz
    limits (-160.0 20.0)
           (-70.0 70.0)
           (-70.0 60.0)
  end
  begin
     id 8 
     name rtibia
     direction -0.34202 -0.939693 0   
     length 7.41043   
     axis 0 0 -20   XYZ
    dof rx
    limits (-10.0 170.0)
 end
 begin
     id 9 
     name rfoot
     direction -0.0784433 -0.215521 0.973343   
     length 1.67708  
     axis -90 -7.62852e-016 -20   XYZ
    dof rx rz
    limits (-45.0 90.0)
           (-20.0 70.0)
  end
  begin
     id 10 
     name rtoes
     direction -1.53551e-011 -4.21842e-011 1   
     length 0.849787   
     axis -90 -7.62852e-016 -20   XYZ
    dof rx
    limits (-90.0 20.0)
  end
  begin
     id 11 
     name lowerback
     direction -0.0122332 0.997575 -0.0685192   
     length 1.98724   
     axis 0 0 0   XYZ
    dof rx ry rz
    limits (-20.0 45.0)
           (-30.0 30.0)
           (-30.0 30.0)
  end
  begin
     id 12 
     name upperback
     direction 0.0182347 0.999724 -0.0148421   
     length 1.99029   
     axis 0 0 0   XYZ
    dof rx ry rz
    limits (-20.0 45.0)
           (-30.0 30.0)
           (-30.0 30.0)
  end
  begin
     id 13 
     name thorax
     direction 0.0242908 0.99956 0.0170184   
     length 1.99573   
     axis 0 0 0   XYZ
    dof rx ry rz
    limits (-20.0 45.0)
           (-30.0 30.0)
           (-30.0 30.0)
  end
  begin
     id 14 
     name lowerneck
     direction 0.0654488 0.985533 0.156338   
     length 1.4285   
     axis 0 0 0   XYZ
    dof rx ry rz
    limits (-20.0 45.0)
           (-30.0 30.0)
           (-30.0 30.0)
  end
  begin
     id 15 
     name upperneck
     direction -0.02953 0.998556 -0.0448842   
     length 1.44709   
     axis 0 0 0   XYZ
    dof rx ry rz
    limits (-20.0 45.0)
           (-30.0 30.0)
           (-30.0 30.0)
  end
  begin
     id 16
     name head
     direction -0.0155588 0.999386 -0.0314063  
     length 1.44689  
     axis 0 0 0   XYZ
    dof rx ry rz
    limits (-20.0 45.0)
           (-30.0 30.0)
           (-30.0 30.0)
  end
  begin
     id 17 
     name lclavicle
     direction 0.968229 0.236071 -0.0824755  
     length 3.60593  
     axis 0 0 0   XYZ
    dof ry rz
    limits (-20.0 10.0)
           (0.0 20.0)
  end
  begin
     id 18 
     name lhumerus
     direction 1 -4.48968e-011 7.8138e-029   
     length 5.06035   
     axis 180 -30 -90   XYZ
    dof rx ry rz
    limits (-60.0 90.0)
           (-90.0 90.0)
           (-90.0 90.0)
  end
  begin
     id 19
     name lradius
     direction 1 -4.48967e-011 9.02887e-028   
     length 3.1478   
     axis 180 -30 -90   XYZ
    dof rx
    limits (-10.0 170.0)
  end
  begin
     id 20
     name lwrist
     direction 1 -4.48961e-011 7.20928e-028   
     length 1.5739   
     axis -5.52449e-016 90 90   XYZ
    dof ry
    limits (-180.0 0.0)
 end
  begin
     id 21 
     name lhand
     direction 1 -4.48972e-011 1.44186e-027   
     length 0.606747   
     axis -9.20027e-016 90 90   XYZ
    dof rx rz
    limits (-90.0 90.0)
           (-45.0 45.0)
  end
  begin
     id 22 
     name lfingers
     direction 1 -4.48943e-011 2.88371e-027   
     length 0.489175   
     axis -1.84005e-015 90 90   XYZ
    dof rx
    limits (0.0 90.0)
  end
  begin
     id 23
     name lthumb
     direction 0.707107 -6.34917e-011 0.707107   
     length 0.70236   
     axis -90 45 2.85299e-015   XYZ
    dof rx rz
    limits (-45.0 45.0)
           (-45.0 45.0)
  end
  begin
     id 24 
     name rclavicle
     direction -0.978165 0.207816 0.0022268   
     length 3.35425  
     axis 0 0 0   XYZ 
    dof ry rz
    limits (-10.0 20.0)
           (-20.0 0.0)
  end
  begin
     id 25 
     name rhumerus
     direction -1 -4.48964e-011 -4.02159e-027  
     length 5.12273   
     axis 180 30 90   XYZ
    dof rx ry rz
    limits (-90.0 60.0)
           (-90.0 90.0)
           (-90.0 90.0)
  end
  begin
     id 26 
     name rradius
     direction -1 -4.48966e-011 1.62746e-027   
     length 3.422   
     axis 180 30 90   XYZ
    dof rx
    limits (-10.0 170.0)
  end
  begin
     id 27 
     name rwrist
     direction -1 -4.4896e-011 7.20928e-028   
     length 1.711   
     axis -5.52449e-016 -90 -90   XYZ
    dof ry
    limits (-180.0 0.0)
  end
  begin
     id 28
     name rhand
     direction -1 -4.48979e-011 1.44186e-027   
     length 0.704599   
     axis -9.20027e-016 -90 -90   XYZ
    dof rx rz
    limits (-90.0 90.0)
           (-45.0 45.0)
  end
  begin
     id 29
     name rfingers
     direction -1 -4.48962e-011 2.88371e-027   
     length 0.568066   
     axis -1.84005e-015 -90 -90   XYZ
    dof rx
    limits (0.0 90.0)
  end
  begin
     id 30
     name rthumb
     direction -0.707107 -6.34949e-011 0.707107   
     length 0.815633   
     axis -90 -45 -2.85299e-015   XYZ
    dof rx rz
    limits (-45.0 45.0)
           (-45.0 45.0)
  end
:hierarchy
  begin
    root lhipjoint rhipjoint lowerback
    lhipjoint lfemur
    lfemur ltibia
    ltibia lfoot
    lfoot ltoes
    rhipjoint rfemur
    rfemur rtibia
    rtibia rfoot
    rfoot rtoes
    lowerback upperback
    upperback thorax
    thorax lowerneck lclavicle rclavicle
    lowerneck upperneck
    upperneck head
    lclavicle lhumerus
    lhumerus lradius
    lradius lwrist
    lwrist lhand lthumb
    lhand lfingers
    rclavicle rhumerus
    rhumerus rradius
    rradius rwrist
    rwrist rhand rthumb
    rhand rfingers
  end

#!OML:ASF Z:\Project 1\Capture day 1\Session 1\Male1.ASF
:FULLY-SPECIFIED
:DEGREES
149
root 19.1054 16.2545 -3.36021 -179.545 48.6791 -184.727
lowerback -6.3199 -0.817022 -4.68977
upperback 2.64085 -0.643999 -0.195148
thorax 6.36889 -0.497774 2.35519
lowerneck 1.32972 -3.0248 -0.794047
upperneck -13.7765 -3.28905 3.63402
head -4.72871 -1.58575 1.51038
rclavicle -4.76214e-014 1.40143e-014
rhumerus 51.8389 10.2468 -46.3036
rradius 62.8317
rwrist 13.8079
rhand -17.5309 20.7459
rfingers 7.12502
rthumb 8.72306 -9.05381
lclavicle -4.76214e-014 1.40143e-014
lhumerus -20.6792 10.7353 84.8168
lradius 12.675
lwrist -18.693
lhand -10.773 44.6548
lfingers 7.12502
lthumb 15.2392 74.0735
rfemur -29.5424 2.87471 11.9457
rtibia 18.7926
rfoot -6.82148 -8.70945
rtoes 2.38661
lfemur 1.77318 5.70043 -28.8134
ltibia 14.0878
lfoot -20.3596 2.63065
ltoes 36.8241
150
root 19.1342 16.257 -3.38643 -179.372 48.457 -184.575
lowerback -6.61305 -0.948318 -4.76848
upperback 2.79247 -0.802958 -0.0224901
thorax 6.71579 -0.593725 2.55733
lowerneck 1.26911 -3.05436 -0.838771
upperneck -13.9305 -3.32306 3.59973
head -4.77244 -1.59454 1.5099
rclavicle 1.21805e-013 -1.3418e-014
rhumerus 52.9223 10.1492 -45.8021
rradius 62.1435
rwrist 13.7085
rhand -17.3538 19.4781
rfingers 7.12502
rthumb 8.89395 -10.3144
lclavicle 1.21805e-013 -1.3418e-014
lhumerus -20.4765 11.7859 84.7269
lradius 12.5027
lwrist -19.3913
lhand -11.5013 43.6208
lfingers 7.12502
lthumb 14.5376 73.0914
rfemur -29.4597 3.06998 11.8731
rtibia 18.1186
rfoot -6.09234 -9.17364
rtoes 0.253237
lfemur 1.97134 5.32572 -28.7144
ltibia 13.9417
lfoot -20.476 2.45471
ltoes 37.7827
151
root 19.1696 16.2597 -3.41006 -179.302 48.3045 -184.477
lowerback -6.53516 -0.969079 -4.73021
upperback 2.67935 -0.846188 0.0183639
thorax 6.55386 -0.609696 2.57491
lowerneck 1.46412 -3.08842 -1.00273
upperneck -13.8938 -3.36076 3.82127
head -4.79095 -1.62019 1.62078
rclavicle 4.39438e-014 1.38155e-014
rhumerus 53.3923 10.0971 -45.6575
rradius 61.2588
rwrist 14.2403
rhand -17.6738 20.4745
rfingers 7.12502
rthumb 8.58511 -9.33098
lclavicle 4.39438e-014 1.38155e-014
lhumerus -20.7295 12.3529 84.4961
lradius 12.3998
lwrist -19.9469
lhand -11.3989 42.9907
lfingers 7.12502
lthumb 14.6362 72.4542
rfemur -29.3043 3.01486 11.9324
rtibia 17.4175
rfoot -6.56499 -9.39697
rtoes 4.741
lfemur 2.18035 5.22195 -28.5974
ltibia 13.8873
lfoot -20.6608 2.68753
ltoes 37.9756
152
root 19.2059 16.2567 -3.43147 -179.32 48.1374 -184.489
lowerback -5.70445 -1.03146 -4.46981
upperback 2.13949 -1.01546 0.0221218
thorax 5.51397 -0.654486 2.42717
lowerneck 1.32656 -2.97361 -1.75587
upperneck -13.2134 -3.2524 4.21639
head -4.49817 -1.55963 1.86606
rclavicle 2.00773e-014 -3.97569e-016
rhumerus 53.6023 10.5513 -45.5611
rradius 60.6506
rwrist 13.8865
rhand -17.1822 21.1524
rfingers 7.12502
rthumb 9.05952 -8.63302
lclavicle 2.00773e-014 -3.97569e-016
lhumerus -21.6849 12.1873 84.3835
lradius 12.5337
lwrist -19.5216
lhand -11.5177 43.0507
lfingers 7.12502
lthumb 14.5217 72.5225
rfemur -28.9541 2.81444 11.9903
rtibia 16.7036
rfoot -6.83101 -9.33992
rtoes 1.37507
lfemur 2.42651 5.23669 -28.5307
ltibia 13.7649
lfoot -20.4635 2.47568
ltoes 37.6099
153
root 19.2387 16.2545 -3.45447 -179.25 47.8333 -184.493
lowerback -5.70986 -0.954104 -4.31798
upperback 2.00223 -0.918316 -0.145807
thorax 5.35884 -0.592625 2.17832
lowerneck 1.61111 -3.11963 -1.34797
upperneck -13.1957 -3.4633 4.00441
head -4.55078 -1.67993 1.73634
rclavicle -4.19684e-014 1.32192e-014
rhumerus 53.6471 10.1966 -45.4999
rradius 60.0046
rwrist 14.0112
rhand -17.3317 20.663
rfingers 7.12502
rthumb 8.91523 -9.12869
lclavicle -4.19684e-014 1.32192e-014
lhumerus -21.9224 10.4341 84.6253
lradius 12.773
lwrist -18.1832
lhand -11.3886 44.0206
lfingers 7.12502
lthumb 14.6461 73.4833
rfemur -28.8055 2.94326 11.8138
rtibia 16.2168
rfoot -7.25573 -9.67356
rtoes 1.89731
lfemur 2.64827 5.11305 -28.4841
ltibia 13.5057
lfoot -20.2756 2.08967
ltoes 38.2574
154
root 19.2759 16.2515 -3.47749 -179.357 47.5618 -184.714
lowerback -5.82779 -0.923223 -4.47158
upperback 1.95314 -0.851675 -0.277494
thorax 5.37068 -0.561125 2.13341
lowerneck 1.9006 -3.36375 -1.31182
upperneck -13.2189 -3.78739 4.11583
head -4.6056 -1.85229 1.78984
rclavicle -1.61761e-014 -3.97569e-016
rhumerus 53.8593 9.75018 -45.4914
rradius 59.3354
rwrist 13.8125
rhand -16.8508 21.621
rfingers 7.12502
rthumb 9.37933 -8.15028
lclavicle -1.61761e-014 -3.97569e-016
lhumerus -22.0349 9.75007 84.6537
lradius 12.784
lwrist -17.7439
lhand -11.2204 44.5208
lfingers 7.12502
lthumb 14.8082 73.9718
rfemur -28.7908 3.46064 11.3251
rtibia 15.8809
rfoot -6.75901 -10.3551
rtoes 1.73204
lfemur 2.93434 4.69722 -28.6204
ltibia 13.2063
lfoot -20.3848 1.60781
ltoes 38.9178
155
root 19.3165 16.2494 -3.50115 -179.575 47.3891 -184.998
lowerback -5.88638 -0.917669 -4.69032
upperback 1.98201 -0.817917 -0.336241
thorax 5.43551 -0.551754 2.19761
lowerneck 1.94896 -3.44034 -1.44972
upperneck -13.324 -3.8701 4.30042
head -4.64543 -1.89342 1.88515
rclavicle -1.41448e-014 -4.96962e-016
rhumerus 54.3018 9.50473 -45.0661
rradius 58.8273
rwrist 13.7814
rhand -16.8786 20.8967
rfingers 7.12502
rthumb 9.35244 -8.87583
lclavicle -1.41448e-014 -4.96962e-016
lhumerus -22.014 9.9714 84.5684
lradius 12.6295
lwrist -17.9985
lhand -11.2179 44.2067
lfingers 7.12502
lthumb 14.8106 73.6575
rfemur -28.5733 3.63943 10.9888
rtibia 15.4995
rfoot -7.37097 -10.5728
rtoes 5.00491
lfemur 3.31671 4.34794 -28.7852
ltibia 12.8769
lfoot -20.4724 2.05653
ltoes 37.7416
